%
M48
M72
T01C0.0236
T02C0.0240
T03C0.0320
T04C0.0354
T05C0.0400
T06C0.0730
%
T01
X4181Y29968
T02
X3181Y30103
X2821Y30463
X6781Y27823
X7141Y29743
X7741Y29983
X8461Y30223
X8701Y26983
X8101Y26863
X9061Y25303
X9061Y24703
X8581Y24103
X8581Y23383
X8941Y22783
X10021Y25303
X10741Y26983
X11101Y27703
X11701Y26143
X11341Y25783
X11821Y24703
X11821Y23983
X11221Y21583
X11221Y20623
X10381Y20263
X10381Y19303
X7741Y14383
X7021Y14143
X6181Y15943
X4741Y16303
X7741Y24703
X10141Y29743
X8581Y6103
X6661Y1903
X6301Y5503
T03
X1806Y2843
X1806Y4843
X1681Y8193
X1681Y8993
X3181Y11093
X3181Y12843
X2181Y12843
X2181Y14843
X3181Y14843
X4181Y14843
X5181Y14843
X5181Y12843
X4181Y12843
X5281Y8843
X6081Y8843
X6181Y11093
X6181Y12843
X6181Y14843
X6306Y16718
X6306Y19718
X6181Y23468
X6181Y24468
X5681Y26093
X5181Y24468
X5181Y23468
X4681Y26093
X3681Y26093
X3556Y24468
X3556Y23468
X2681Y26093
X2681Y29093
X3681Y29093
X4681Y29093
X5681Y29093
X6681Y29093
X7681Y29093
X8681Y29093
X9681Y29093
X10681Y29093
X10681Y26093
X9681Y26093
X8681Y26093
X7681Y26093
X6681Y26093
X1181Y22343
X1181Y19343
X1181Y18593
X1181Y15593
T04
X4056Y7077
X4056Y5108
T05
X4961Y16953
X4961Y18733
X4961Y19953
X4961Y21733
X2401Y21733
X2401Y19953
X2401Y18733
X2401Y16953
X11681Y27093
X11681Y28093
T06
X10181Y24243
X10181Y21243
X10181Y7443
X10181Y4443
M30
