G75*
G70*
%OFA0B0*%
%FSLAX24Y24*%
%IPPOS*%
%LPD*%
%AMOC8*
5,1,8,0,0,1.08239X$1,22.5*
%
%ADD10C,0.0600*%
%ADD11R,0.0946X0.0316*%
%ADD12OC8,0.0600*%
%ADD13C,0.0600*%
%ADD14C,0.0820*%
%ADD15C,0.0516*%
%ADD16C,0.1175*%
%ADD17R,0.0749X0.0789*%
%ADD18C,0.0480*%
D10*
X002181Y012583D02*
X002181Y013103D01*
X002181Y014583D02*
X002181Y015103D01*
X003181Y015103D02*
X003181Y014583D01*
X003181Y013103D02*
X003181Y012583D01*
X004181Y012583D02*
X004181Y013103D01*
X004181Y014583D02*
X004181Y015103D01*
X005181Y015103D02*
X005181Y014583D01*
X005181Y013103D02*
X005181Y012583D01*
X006181Y012583D02*
X006181Y013103D01*
X006181Y014583D02*
X006181Y015103D01*
X005681Y026083D02*
X005681Y026603D01*
X006681Y026603D02*
X006681Y026083D01*
X007681Y026083D02*
X007681Y026603D01*
X008681Y026603D02*
X008681Y026083D01*
X009681Y026083D02*
X009681Y026603D01*
X010681Y026603D02*
X010681Y026083D01*
X010681Y029083D02*
X010681Y029603D01*
X009681Y029603D02*
X009681Y029083D01*
X008681Y029083D02*
X008681Y029603D01*
X007681Y029603D02*
X007681Y029083D01*
X006681Y029083D02*
X006681Y029603D01*
X005681Y029603D02*
X005681Y029083D01*
X004681Y029083D02*
X004681Y029603D01*
X003681Y029603D02*
X003681Y029083D01*
X002681Y029083D02*
X002681Y029603D01*
X002681Y026603D02*
X002681Y026083D01*
X003681Y026083D02*
X003681Y026603D01*
X004681Y026603D02*
X004681Y026083D01*
D11*
X003908Y003093D03*
X003908Y002593D03*
X003908Y002093D03*
X003908Y001593D03*
X005955Y001593D03*
X005955Y002093D03*
X005955Y002593D03*
X005955Y003093D03*
D12*
X001681Y002843D03*
X001681Y004843D03*
X001681Y008993D03*
X003181Y011093D03*
X001181Y015593D03*
X001181Y018593D03*
X001181Y019843D03*
X001181Y022843D03*
X003431Y023843D03*
X006431Y023843D03*
X006181Y011093D03*
X005281Y008843D03*
D13*
X006081Y008843D03*
X001681Y008193D03*
D14*
X002401Y016953D03*
X002401Y018733D03*
X002401Y019953D03*
X002401Y021733D03*
X004961Y021733D03*
X004961Y019953D03*
X004961Y018733D03*
X004961Y016953D03*
X006431Y018843D03*
X006431Y019843D03*
D15*
X004150Y007077D02*
X003713Y007077D01*
X003713Y005108D02*
X004150Y005108D01*
D16*
X010181Y004443D03*
X010181Y007443D03*
X010181Y021243D03*
X010181Y024243D03*
D17*
X006431Y006150D03*
X006431Y004536D03*
D18*
X005941Y003863D03*
X006421Y005463D03*
X008581Y006103D03*
X008181Y019463D03*
X010101Y025303D03*
X011541Y021543D03*
M02*
