%
M48
M72
T01C0.0236
T02C0.0240
T03C0.0320
T04C0.0400
T05C0.0730
%
T01
X3931Y5108
X3931Y7077
T02
X5941Y3863
X6421Y5463
X8581Y6103
X8181Y19463
X10101Y25303
X11541Y21543
T03
X1681Y2843
X1681Y4843
X1681Y8193
X1681Y8993
X3181Y11093
X3181Y12843
X2181Y12843
X2181Y14843
X3181Y14843
X4181Y14843
X5181Y14843
X5181Y12843
X4181Y12843
X5281Y8843
X6081Y8843
X6181Y11093
X6181Y12843
X6181Y14843
X6431Y23843
X6681Y26343
X5681Y26343
X4681Y26343
X3681Y26343
X2681Y26343
X3431Y23843
X1181Y22843
X1181Y19843
X1181Y18593
X1181Y15593
X2681Y29343
X3681Y29343
X4681Y29343
X5681Y29343
X6681Y29343
X7681Y29343
X8681Y29343
X9681Y29343
X10681Y29343
X10681Y26343
X9681Y26343
X8681Y26343
X7681Y26343
T04
X4961Y21733
X4961Y19953
X4961Y18733
X4961Y16953
X6431Y18843
X6431Y19843
X2401Y19953
X2401Y18733
X2401Y16953
X2401Y21733
T05
X10181Y21243
X10181Y24243
X10181Y7443
X10181Y4443
M30
