G75*
G70*
%OFA0B0*%
%FSLAX24Y24*%
%IPPOS*%
%LPD*%
%AMOC8*
5,1,8,0,0,1.08239X$1,22.5*
%
%ADD10C,0.0160*%
%ADD11C,0.0060*%
%ADD12C,0.0030*%
%ADD13R,0.0200X0.0150*%
%ADD14C,0.0080*%
%ADD15C,0.0100*%
%ADD16C,0.0120*%
%ADD17C,0.0050*%
%ADD18R,0.0150X0.0200*%
%ADD19R,0.0230X0.0160*%
D10*
X000181Y000343D02*
X000181Y006343D01*
X000181Y000343D02*
X002181Y000343D01*
X011181Y000343D02*
X013181Y000343D01*
X013181Y006343D01*
X013181Y025343D02*
X013181Y031343D01*
X011181Y031343D01*
X003256Y024168D02*
X003106Y024168D01*
X003056Y023768D02*
X003256Y023768D01*
X000181Y025343D02*
X000181Y031343D01*
X002181Y031343D01*
D11*
X002181Y028593D02*
X002181Y027843D01*
X002211Y027841D01*
X002241Y027836D01*
X002270Y027827D01*
X002297Y027814D01*
X002323Y027799D01*
X002347Y027780D01*
X002368Y027759D01*
X002387Y027735D01*
X002402Y027709D01*
X002415Y027682D01*
X002424Y027653D01*
X002429Y027623D01*
X002431Y027593D01*
X002429Y027563D01*
X002424Y027533D01*
X002415Y027504D01*
X002402Y027477D01*
X002387Y027451D01*
X002368Y027427D01*
X002347Y027406D01*
X002323Y027387D01*
X002297Y027372D01*
X002270Y027359D01*
X002241Y027350D01*
X002211Y027345D01*
X002181Y027343D01*
X002181Y026593D01*
X011181Y026593D01*
X011181Y028593D01*
X002181Y028593D01*
X002756Y024368D02*
X000606Y024368D01*
X000589Y024366D01*
X000572Y024362D01*
X000556Y024355D01*
X000542Y024345D01*
X000529Y024332D01*
X000519Y024318D01*
X000512Y024302D01*
X000508Y024285D01*
X000506Y024268D01*
X000506Y023668D01*
X000508Y023651D01*
X000512Y023634D01*
X000519Y023618D01*
X000529Y023604D01*
X000542Y023591D01*
X000556Y023581D01*
X000572Y023574D01*
X000589Y023570D01*
X000606Y023568D01*
X002756Y023568D01*
X002756Y023618D01*
X002756Y024318D01*
X002756Y024368D01*
X002756Y024318D02*
X002906Y024318D01*
X002906Y023618D01*
X002756Y023618D01*
X002106Y023968D02*
X001906Y023968D01*
X001906Y024168D01*
X001756Y024168D02*
X001756Y023768D01*
X001606Y023768D01*
X001606Y024168D01*
X001756Y024168D01*
X001906Y023968D02*
X001906Y023768D01*
X001456Y023768D02*
X001456Y023968D01*
X001456Y024168D01*
X001456Y023968D02*
X001256Y023968D01*
X001481Y021843D02*
X000881Y021843D01*
X000864Y021841D01*
X000847Y021837D01*
X000831Y021830D01*
X000817Y021820D01*
X000804Y021807D01*
X000794Y021793D01*
X000787Y021777D01*
X000783Y021760D01*
X000781Y021743D01*
X000781Y021593D01*
X000831Y021543D01*
X000831Y020143D01*
X000781Y020093D01*
X000781Y019943D01*
X000783Y019926D01*
X000787Y019909D01*
X000794Y019893D01*
X000804Y019879D01*
X000817Y019866D01*
X000831Y019856D01*
X000847Y019849D01*
X000864Y019845D01*
X000881Y019843D01*
X001481Y019843D01*
X001498Y019845D01*
X001515Y019849D01*
X001531Y019856D01*
X001545Y019866D01*
X001558Y019879D01*
X001568Y019893D01*
X001575Y019909D01*
X001579Y019926D01*
X001581Y019943D01*
X001581Y020093D01*
X001531Y020143D01*
X001531Y021543D01*
X001581Y021593D01*
X001581Y021743D01*
X001579Y021760D01*
X001575Y021777D01*
X001568Y021793D01*
X001558Y021807D01*
X001545Y021820D01*
X001531Y021830D01*
X001515Y021837D01*
X001498Y021841D01*
X001481Y021843D01*
X001481Y018093D02*
X000881Y018093D01*
X000864Y018091D01*
X000847Y018087D01*
X000831Y018080D01*
X000817Y018070D01*
X000804Y018057D01*
X000794Y018043D01*
X000787Y018027D01*
X000783Y018010D01*
X000781Y017993D01*
X000781Y017843D01*
X000831Y017793D01*
X000831Y016393D01*
X000781Y016343D01*
X000781Y016193D01*
X000783Y016176D01*
X000787Y016159D01*
X000794Y016143D01*
X000804Y016129D01*
X000817Y016116D01*
X000831Y016106D01*
X000847Y016099D01*
X000864Y016095D01*
X000881Y016093D01*
X001481Y016093D01*
X001498Y016095D01*
X001515Y016099D01*
X001531Y016106D01*
X001545Y016116D01*
X001558Y016129D01*
X001568Y016143D01*
X001575Y016159D01*
X001579Y016176D01*
X001581Y016193D01*
X001581Y016343D01*
X001531Y016393D01*
X001531Y017793D01*
X001581Y017843D01*
X001581Y017993D01*
X001579Y018010D01*
X001575Y018027D01*
X001568Y018043D01*
X001558Y018057D01*
X001545Y018070D01*
X001531Y018080D01*
X001515Y018087D01*
X001498Y018091D01*
X001481Y018093D01*
X001681Y015343D02*
X001681Y012593D01*
X001931Y012343D01*
X006681Y012343D01*
X006681Y015343D01*
X001681Y015343D01*
X003681Y011393D02*
X003681Y010793D01*
X003683Y010776D01*
X003687Y010759D01*
X003694Y010743D01*
X003704Y010729D01*
X003717Y010716D01*
X003731Y010706D01*
X003747Y010699D01*
X003764Y010695D01*
X003781Y010693D01*
X003931Y010693D01*
X003981Y010743D01*
X005381Y010743D01*
X005431Y010693D01*
X005581Y010693D01*
X005598Y010695D01*
X005615Y010699D01*
X005631Y010706D01*
X005645Y010716D01*
X005658Y010729D01*
X005668Y010743D01*
X005675Y010759D01*
X005679Y010776D01*
X005681Y010793D01*
X005681Y011393D01*
X005679Y011410D01*
X005675Y011427D01*
X005668Y011443D01*
X005658Y011457D01*
X005645Y011470D01*
X005631Y011480D01*
X005615Y011487D01*
X005598Y011491D01*
X005581Y011493D01*
X005431Y011493D01*
X005381Y011443D01*
X003981Y011443D01*
X003931Y011493D01*
X003781Y011493D01*
X003764Y011491D01*
X003747Y011487D01*
X003731Y011480D01*
X003717Y011470D01*
X003704Y011457D01*
X003694Y011443D01*
X003687Y011427D01*
X003683Y011410D01*
X003681Y011393D01*
X004681Y008843D02*
X004683Y008906D01*
X004689Y008968D01*
X004699Y009030D01*
X004712Y009092D01*
X004730Y009152D01*
X004751Y009211D01*
X004776Y009269D01*
X004805Y009325D01*
X004837Y009379D01*
X004872Y009431D01*
X004910Y009480D01*
X004952Y009528D01*
X004996Y009572D01*
X005044Y009614D01*
X005093Y009652D01*
X005145Y009687D01*
X005199Y009719D01*
X005255Y009748D01*
X005313Y009773D01*
X005372Y009794D01*
X005432Y009812D01*
X005494Y009825D01*
X005556Y009835D01*
X005618Y009841D01*
X005681Y009843D01*
X005744Y009841D01*
X005806Y009835D01*
X005868Y009825D01*
X005930Y009812D01*
X005990Y009794D01*
X006049Y009773D01*
X006107Y009748D01*
X006163Y009719D01*
X006217Y009687D01*
X006269Y009652D01*
X006318Y009614D01*
X006366Y009572D01*
X006410Y009528D01*
X006452Y009480D01*
X006490Y009431D01*
X006525Y009379D01*
X006557Y009325D01*
X006586Y009269D01*
X006611Y009211D01*
X006632Y009152D01*
X006650Y009092D01*
X006663Y009030D01*
X006673Y008968D01*
X006679Y008906D01*
X006681Y008843D01*
X006679Y008780D01*
X006673Y008718D01*
X006663Y008656D01*
X006650Y008594D01*
X006632Y008534D01*
X006611Y008475D01*
X006586Y008417D01*
X006557Y008361D01*
X006525Y008307D01*
X006490Y008255D01*
X006452Y008206D01*
X006410Y008158D01*
X006366Y008114D01*
X006318Y008072D01*
X006269Y008034D01*
X006217Y007999D01*
X006163Y007967D01*
X006107Y007938D01*
X006049Y007913D01*
X005990Y007892D01*
X005930Y007874D01*
X005868Y007861D01*
X005806Y007851D01*
X005744Y007845D01*
X005681Y007843D01*
X005618Y007845D01*
X005556Y007851D01*
X005494Y007861D01*
X005432Y007874D01*
X005372Y007892D01*
X005313Y007913D01*
X005255Y007938D01*
X005199Y007967D01*
X005145Y007999D01*
X005093Y008034D01*
X005044Y008072D01*
X004996Y008114D01*
X004952Y008158D01*
X004910Y008206D01*
X004872Y008255D01*
X004837Y008307D01*
X004805Y008361D01*
X004776Y008417D01*
X004751Y008475D01*
X004730Y008534D01*
X004712Y008594D01*
X004699Y008656D01*
X004689Y008718D01*
X004683Y008780D01*
X004681Y008843D01*
X005981Y008143D02*
X006181Y008143D01*
X006081Y008243D02*
X006081Y008043D01*
X007425Y003013D02*
X007638Y002800D01*
X007638Y002373D01*
X007638Y002693D02*
X007211Y002693D01*
X007211Y002800D02*
X007425Y003013D01*
X007211Y002800D02*
X007211Y002373D01*
X007211Y001800D02*
X007425Y001373D01*
X007638Y001800D01*
X007856Y001800D02*
X008069Y002013D01*
X008069Y001373D01*
X007856Y001373D02*
X008283Y001373D01*
X008215Y001013D02*
X008002Y001013D01*
X007895Y000906D01*
X007677Y001013D02*
X007250Y000373D01*
X007033Y000373D02*
X006606Y000373D01*
X007033Y000800D01*
X007033Y000906D01*
X006926Y001013D01*
X006713Y001013D01*
X006606Y000906D01*
X006388Y000373D02*
X005961Y000373D01*
X005961Y000800D02*
X006175Y001013D01*
X006175Y000373D01*
X007895Y000373D02*
X008322Y000800D01*
X008322Y000906D01*
X008215Y001013D01*
X008540Y000906D02*
X008540Y000800D01*
X008646Y000693D01*
X008860Y000693D01*
X008967Y000586D01*
X008967Y000479D01*
X008860Y000373D01*
X008646Y000373D01*
X008540Y000479D01*
X008540Y000586D01*
X008646Y000693D01*
X008540Y000906D02*
X008646Y001013D01*
X008860Y001013D01*
X008967Y000906D01*
X008967Y000800D01*
X008860Y000693D01*
X009184Y000373D02*
X009611Y001013D01*
X009829Y000800D02*
X010042Y001013D01*
X010042Y000373D01*
X009829Y000373D02*
X010256Y000373D01*
X010473Y000479D02*
X010900Y000906D01*
X010900Y000479D01*
X010793Y000373D01*
X010580Y000373D01*
X010473Y000479D01*
X010473Y000906D01*
X010580Y001013D01*
X010793Y001013D01*
X010900Y000906D01*
X010110Y002373D02*
X010217Y002479D01*
X010217Y002693D01*
X010003Y002693D01*
X009790Y002906D02*
X009790Y002479D01*
X009896Y002373D01*
X010110Y002373D01*
X010217Y002906D02*
X010110Y003013D01*
X009896Y003013D01*
X009790Y002906D01*
X009572Y002800D02*
X009572Y002373D01*
X009572Y002693D02*
X009145Y002693D01*
X009145Y002800D02*
X009359Y003013D01*
X009572Y002800D01*
X009145Y002800D02*
X009145Y002373D01*
X009143Y002013D02*
X008823Y001693D01*
X009250Y001693D01*
X009143Y001373D02*
X009143Y002013D01*
X008821Y002373D02*
X008927Y002479D01*
X008927Y002586D01*
X008821Y002693D01*
X008714Y002693D01*
X008821Y002693D02*
X008927Y002800D01*
X008927Y002906D01*
X008821Y003013D01*
X008607Y003013D01*
X008500Y002906D01*
X008283Y002906D02*
X008283Y002800D01*
X008176Y002693D01*
X007856Y002693D01*
X007856Y002373D02*
X007856Y003013D01*
X008176Y003013D01*
X008283Y002906D01*
X008176Y002693D02*
X008283Y002586D01*
X008283Y002479D01*
X008176Y002373D01*
X007856Y002373D01*
X008500Y002479D02*
X008607Y002373D01*
X008821Y002373D01*
X008607Y001479D02*
X008500Y001479D01*
X008500Y001373D01*
X008607Y001373D01*
X008607Y001479D01*
X008322Y000373D02*
X007895Y000373D01*
X002406Y002493D02*
X002406Y005193D01*
X002404Y005210D01*
X002400Y005227D01*
X002393Y005243D01*
X002383Y005257D01*
X002370Y005270D01*
X002356Y005280D01*
X002340Y005287D01*
X002323Y005291D01*
X002306Y005293D01*
X001306Y005293D01*
X001289Y005291D01*
X001272Y005287D01*
X001256Y005280D01*
X001242Y005270D01*
X001229Y005257D01*
X001219Y005243D01*
X001212Y005227D01*
X001208Y005210D01*
X001206Y005193D01*
X001206Y002493D01*
X001208Y002476D01*
X001212Y002459D01*
X001219Y002443D01*
X001229Y002429D01*
X001242Y002416D01*
X001256Y002406D01*
X001272Y002399D01*
X001289Y002395D01*
X001306Y002393D01*
X002306Y002393D01*
X002323Y002395D01*
X002340Y002399D01*
X002356Y002406D01*
X002370Y002416D01*
X002383Y002429D01*
X002393Y002443D01*
X002400Y002459D01*
X002404Y002476D01*
X002406Y002493D01*
X001806Y003243D02*
X001806Y003723D01*
X001806Y003973D02*
X001806Y004443D01*
X000981Y008093D02*
X000981Y008293D01*
X001081Y008193D02*
X000881Y008193D01*
X000681Y008593D02*
X000683Y008656D01*
X000689Y008718D01*
X000699Y008780D01*
X000712Y008842D01*
X000730Y008902D01*
X000751Y008961D01*
X000776Y009019D01*
X000805Y009075D01*
X000837Y009129D01*
X000872Y009181D01*
X000910Y009230D01*
X000952Y009278D01*
X000996Y009322D01*
X001044Y009364D01*
X001093Y009402D01*
X001145Y009437D01*
X001199Y009469D01*
X001255Y009498D01*
X001313Y009523D01*
X001372Y009544D01*
X001432Y009562D01*
X001494Y009575D01*
X001556Y009585D01*
X001618Y009591D01*
X001681Y009593D01*
X001744Y009591D01*
X001806Y009585D01*
X001868Y009575D01*
X001930Y009562D01*
X001990Y009544D01*
X002049Y009523D01*
X002107Y009498D01*
X002163Y009469D01*
X002217Y009437D01*
X002269Y009402D01*
X002318Y009364D01*
X002366Y009322D01*
X002410Y009278D01*
X002452Y009230D01*
X002490Y009181D01*
X002525Y009129D01*
X002557Y009075D01*
X002586Y009019D01*
X002611Y008961D01*
X002632Y008902D01*
X002650Y008842D01*
X002663Y008780D01*
X002673Y008718D01*
X002679Y008656D01*
X002681Y008593D01*
X002679Y008530D01*
X002673Y008468D01*
X002663Y008406D01*
X002650Y008344D01*
X002632Y008284D01*
X002611Y008225D01*
X002586Y008167D01*
X002557Y008111D01*
X002525Y008057D01*
X002490Y008005D01*
X002452Y007956D01*
X002410Y007908D01*
X002366Y007864D01*
X002318Y007822D01*
X002269Y007784D01*
X002217Y007749D01*
X002163Y007717D01*
X002107Y007688D01*
X002049Y007663D01*
X001990Y007642D01*
X001930Y007624D01*
X001868Y007611D01*
X001806Y007601D01*
X001744Y007595D01*
X001681Y007593D01*
X001618Y007595D01*
X001556Y007601D01*
X001494Y007611D01*
X001432Y007624D01*
X001372Y007642D01*
X001313Y007663D01*
X001255Y007688D01*
X001199Y007717D01*
X001145Y007749D01*
X001093Y007784D01*
X001044Y007822D01*
X000996Y007864D01*
X000952Y007908D01*
X000910Y007956D01*
X000872Y008005D01*
X000837Y008057D01*
X000805Y008111D01*
X000776Y008167D01*
X000751Y008225D01*
X000730Y008284D01*
X000712Y008344D01*
X000699Y008406D01*
X000689Y008468D01*
X000683Y008530D01*
X000681Y008593D01*
X006006Y017218D02*
X006606Y017218D01*
X006623Y017220D01*
X006640Y017224D01*
X006656Y017231D01*
X006670Y017241D01*
X006683Y017254D01*
X006693Y017268D01*
X006700Y017284D01*
X006704Y017301D01*
X006706Y017318D01*
X006706Y017468D01*
X006656Y017518D01*
X006656Y018918D01*
X006706Y018968D01*
X006706Y019118D01*
X006704Y019135D01*
X006700Y019152D01*
X006693Y019168D01*
X006683Y019182D01*
X006670Y019195D01*
X006656Y019205D01*
X006640Y019212D01*
X006623Y019216D01*
X006606Y019218D01*
X006006Y019218D01*
X005989Y019216D01*
X005972Y019212D01*
X005956Y019205D01*
X005942Y019195D01*
X005929Y019182D01*
X005919Y019168D01*
X005912Y019152D01*
X005908Y019135D01*
X005906Y019118D01*
X005906Y018968D01*
X005956Y018918D01*
X005956Y017518D01*
X005906Y017468D01*
X005906Y017318D01*
X005908Y017301D01*
X005912Y017284D01*
X005919Y017268D01*
X005929Y017254D01*
X005942Y017241D01*
X005956Y017231D01*
X005972Y017224D01*
X005989Y017220D01*
X006006Y017218D01*
X006531Y022968D02*
X004831Y022968D01*
X004814Y022970D01*
X004797Y022974D01*
X004781Y022981D01*
X004767Y022991D01*
X004754Y023004D01*
X004744Y023018D01*
X004737Y023034D01*
X004733Y023051D01*
X004731Y023068D01*
X004731Y023868D01*
X004733Y023885D01*
X004737Y023902D01*
X004744Y023918D01*
X004754Y023932D01*
X004767Y023945D01*
X004781Y023955D01*
X004797Y023962D01*
X004814Y023966D01*
X004831Y023968D01*
X006531Y023968D01*
X004831Y023968D01*
X004814Y023970D01*
X004797Y023974D01*
X004781Y023981D01*
X004767Y023991D01*
X004754Y024004D01*
X004744Y024018D01*
X004737Y024034D01*
X004733Y024051D01*
X004731Y024068D01*
X004731Y024868D01*
X004733Y024885D01*
X004737Y024902D01*
X004744Y024918D01*
X004754Y024932D01*
X004767Y024945D01*
X004781Y024955D01*
X004797Y024962D01*
X004814Y024966D01*
X004831Y024968D01*
X006531Y024968D01*
X006548Y024966D01*
X006565Y024962D01*
X006581Y024955D01*
X006595Y024945D01*
X006608Y024932D01*
X006618Y024918D01*
X006625Y024902D01*
X006629Y024885D01*
X006631Y024868D01*
X006631Y024068D01*
X006629Y024051D01*
X006625Y024034D01*
X006618Y024018D01*
X006608Y024004D01*
X006595Y023991D01*
X006581Y023981D01*
X006565Y023974D01*
X006548Y023970D01*
X006531Y023968D01*
X006548Y023966D01*
X006565Y023962D01*
X006581Y023955D01*
X006595Y023945D01*
X006608Y023932D01*
X006618Y023918D01*
X006625Y023902D01*
X006629Y023885D01*
X006631Y023868D01*
X006631Y023068D01*
X006629Y023051D01*
X006625Y023034D01*
X006618Y023018D01*
X006608Y023004D01*
X006595Y022991D01*
X006581Y022981D01*
X006565Y022974D01*
X006548Y022970D01*
X006531Y022968D01*
X005831Y023468D02*
X005781Y023468D01*
X005581Y023468D02*
X005531Y023468D01*
X005531Y024468D02*
X005581Y024468D01*
X005781Y024468D02*
X005831Y024468D01*
D12*
X003979Y020358D02*
X003786Y020358D01*
X003882Y020358D02*
X003882Y020648D01*
X003786Y020551D01*
X003685Y020648D02*
X003685Y020358D01*
X003588Y020454D01*
X003491Y020358D01*
X003491Y020648D01*
X003390Y020600D02*
X003342Y020648D01*
X003245Y020648D01*
X003196Y020600D01*
X003196Y020551D01*
X003245Y020503D01*
X003342Y020503D01*
X003390Y020454D01*
X003390Y020406D01*
X003342Y020358D01*
X003245Y020358D01*
X003196Y020406D01*
X003245Y020148D02*
X003196Y020100D01*
X003196Y020051D01*
X003245Y020003D01*
X003342Y020003D01*
X003390Y019954D01*
X003390Y019906D01*
X003342Y019858D01*
X003245Y019858D01*
X003196Y019906D01*
X003245Y020148D02*
X003342Y020148D01*
X003390Y020100D01*
X003491Y020148D02*
X003491Y019858D01*
X003685Y019858D01*
X003588Y020003D02*
X003491Y020003D01*
X003491Y020148D02*
X003685Y020148D01*
X003786Y020148D02*
X003979Y020148D01*
X003882Y020148D02*
X003882Y019858D01*
X003834Y017648D02*
X003786Y017600D01*
X003834Y017648D02*
X003931Y017648D01*
X003979Y017600D01*
X003979Y017551D01*
X003786Y017358D01*
X003979Y017358D01*
X003931Y017148D02*
X003786Y017148D01*
X003786Y016858D01*
X003931Y016858D01*
X003979Y016906D01*
X003979Y017100D01*
X003931Y017148D01*
X004080Y017148D02*
X004080Y016858D01*
X004274Y016858D01*
X004177Y017003D02*
X004080Y017003D01*
X004080Y017148D02*
X004274Y017148D01*
X003685Y017100D02*
X003685Y016906D01*
X003636Y016858D01*
X003539Y016858D01*
X003491Y016906D01*
X003491Y017100D01*
X003539Y017148D01*
X003636Y017148D01*
X003685Y017100D01*
X003685Y017358D02*
X003588Y017454D01*
X003491Y017358D01*
X003491Y017648D01*
X003390Y017600D02*
X003342Y017648D01*
X003245Y017648D01*
X003196Y017600D01*
X003196Y017551D01*
X003245Y017503D01*
X003342Y017503D01*
X003390Y017454D01*
X003390Y017406D01*
X003342Y017358D01*
X003245Y017358D01*
X003196Y017406D01*
X003196Y017148D02*
X003293Y017051D01*
X003390Y017148D01*
X003390Y016858D01*
X003196Y016858D02*
X003196Y017148D01*
X003685Y017358D02*
X003685Y017648D01*
X005876Y014240D02*
X006166Y014240D01*
X006166Y014143D02*
X006166Y014337D01*
X006118Y014042D02*
X006166Y013994D01*
X006166Y013897D01*
X006118Y013849D01*
X006021Y013897D02*
X006021Y013994D01*
X006070Y014042D01*
X006118Y014042D01*
X006021Y013897D02*
X005973Y013849D01*
X005925Y013849D01*
X005876Y013897D01*
X005876Y013994D01*
X005925Y014042D01*
X005973Y014143D02*
X005876Y014240D01*
X005876Y013749D02*
X005876Y013652D01*
X005876Y013701D02*
X006166Y013701D01*
X006166Y013749D02*
X006166Y013652D01*
X006118Y013551D02*
X005925Y013551D01*
X005876Y013503D01*
X005876Y013358D01*
X006166Y013358D01*
X006166Y013503D01*
X006118Y013551D01*
X004838Y010648D02*
X004838Y010358D01*
X004741Y010358D02*
X004935Y010358D01*
X004741Y010551D02*
X004838Y010648D01*
X004640Y010600D02*
X004640Y010503D01*
X004592Y010454D01*
X004446Y010454D01*
X004446Y010358D02*
X004446Y010648D01*
X004592Y010648D01*
X004640Y010600D01*
X004543Y010454D02*
X004640Y010358D01*
X005495Y008648D02*
X005446Y008600D01*
X005446Y008406D01*
X005495Y008358D01*
X005592Y008358D01*
X005640Y008406D01*
X005741Y008358D02*
X005935Y008551D01*
X005935Y008600D01*
X005886Y008648D01*
X005789Y008648D01*
X005741Y008600D01*
X005640Y008600D02*
X005592Y008648D01*
X005495Y008648D01*
X005741Y008358D02*
X005935Y008358D01*
X005274Y006648D02*
X005274Y006358D01*
X005274Y006503D02*
X005080Y006503D01*
X004979Y006551D02*
X004979Y006358D01*
X004834Y006358D01*
X004786Y006406D01*
X004786Y006551D01*
X004685Y006551D02*
X004685Y006600D01*
X004636Y006648D01*
X004539Y006648D01*
X004491Y006600D01*
X004390Y006600D02*
X004342Y006648D01*
X004245Y006648D01*
X004196Y006600D01*
X004390Y006600D02*
X004390Y006551D01*
X004196Y006358D01*
X004390Y006358D01*
X004491Y006358D02*
X004685Y006551D01*
X004685Y006358D02*
X004491Y006358D01*
X005080Y006358D02*
X005080Y006648D01*
X004543Y003273D02*
X004543Y002983D01*
X004446Y002983D02*
X004640Y002983D01*
X004446Y003176D02*
X004543Y003273D01*
X004876Y003149D02*
X004925Y003053D01*
X005021Y002956D01*
X005021Y003101D01*
X005070Y003149D01*
X005118Y003149D01*
X005166Y003101D01*
X005166Y003004D01*
X005118Y002956D01*
X005021Y002956D01*
X005021Y002855D02*
X005118Y002855D01*
X005166Y002806D01*
X005166Y002710D01*
X005118Y002661D01*
X005021Y002661D02*
X004973Y002758D01*
X004973Y002806D01*
X005021Y002855D01*
X004876Y002855D02*
X004876Y002661D01*
X005021Y002661D01*
X004925Y002560D02*
X005118Y002367D01*
X005166Y002367D01*
X005166Y002265D02*
X004876Y002072D01*
X004973Y001971D02*
X004876Y001874D01*
X004973Y001777D01*
X005166Y001777D01*
X005166Y001676D02*
X004876Y001676D01*
X004973Y001579D01*
X004876Y001483D01*
X005166Y001483D01*
X005021Y001777D02*
X005021Y001971D01*
X004973Y001971D02*
X005166Y001971D01*
X005166Y002072D02*
X004876Y002265D01*
X004876Y002367D02*
X004876Y002560D01*
X004925Y002560D01*
X002791Y003656D02*
X002791Y003753D01*
X002743Y003801D01*
X002743Y003902D02*
X002791Y003951D01*
X002791Y004047D01*
X002743Y004096D01*
X002695Y004096D01*
X002646Y004047D01*
X002646Y003999D01*
X002646Y004047D02*
X002598Y004096D01*
X002550Y004096D01*
X002501Y004047D01*
X002501Y003951D01*
X002550Y003902D01*
X002550Y003801D02*
X002501Y003753D01*
X002501Y003656D01*
X002550Y003608D01*
X002743Y003608D01*
X002791Y003656D01*
X001118Y008358D02*
X000925Y008358D01*
X000876Y008406D01*
X000876Y008503D01*
X000925Y008551D01*
X000973Y008652D02*
X000876Y008749D01*
X001166Y008749D01*
X001166Y008652D02*
X001166Y008846D01*
X001118Y008551D02*
X001166Y008503D01*
X001166Y008406D01*
X001118Y008358D01*
X001195Y016733D02*
X001195Y016878D01*
X001146Y016926D01*
X001050Y016926D01*
X001001Y016878D01*
X001001Y016733D01*
X001291Y016733D01*
X001195Y016829D02*
X001291Y016926D01*
X001291Y017027D02*
X001098Y017221D01*
X001050Y017221D01*
X001001Y017172D01*
X001001Y017076D01*
X001050Y017027D01*
X001291Y017027D02*
X001291Y017221D01*
X001291Y020608D02*
X001001Y020608D01*
X001001Y020753D01*
X001050Y020801D01*
X001146Y020801D01*
X001195Y020753D01*
X001195Y020608D01*
X001195Y020704D02*
X001291Y020801D01*
X001243Y020902D02*
X001291Y020951D01*
X001291Y021047D01*
X001243Y021096D01*
X001195Y021096D01*
X001146Y021047D01*
X001146Y020999D01*
X001146Y021047D02*
X001098Y021096D01*
X001050Y021096D01*
X001001Y021047D01*
X001001Y020951D01*
X001050Y020902D01*
X006126Y018172D02*
X006271Y018027D01*
X006271Y018221D01*
X006416Y018172D02*
X006126Y018172D01*
X006175Y017926D02*
X006126Y017878D01*
X006126Y017733D01*
X006416Y017733D01*
X006320Y017733D02*
X006320Y017878D01*
X006271Y017926D01*
X006175Y017926D01*
X006320Y017829D02*
X006416Y017926D01*
X011071Y026108D02*
X011265Y026108D01*
X011366Y026108D02*
X011560Y026108D01*
X011661Y026108D02*
X011661Y026398D01*
X011806Y026398D01*
X011854Y026350D01*
X011854Y026156D01*
X011806Y026108D01*
X011661Y026108D01*
X011560Y026398D02*
X011366Y026398D01*
X011366Y026108D01*
X011366Y026253D02*
X011463Y026253D01*
X011071Y026398D02*
X011071Y026108D01*
X011955Y026253D02*
X012149Y026253D01*
X012052Y026350D02*
X012052Y026156D01*
X012056Y028733D02*
X011911Y028733D01*
X011911Y029023D01*
X012056Y029023D01*
X012104Y028975D01*
X012104Y028781D01*
X012056Y028733D01*
X011810Y028733D02*
X011810Y029023D01*
X011616Y029023D02*
X011810Y028733D01*
X011616Y028733D02*
X011616Y029023D01*
X011515Y028975D02*
X011467Y029023D01*
X011370Y029023D01*
X011321Y028975D01*
X011321Y028781D01*
X011370Y028733D01*
X011467Y028733D01*
X011515Y028781D01*
X011515Y028878D01*
X011418Y028878D01*
X007838Y005398D02*
X007838Y005108D01*
X007741Y005108D02*
X007935Y005108D01*
X007741Y005301D02*
X007838Y005398D01*
X007640Y005350D02*
X007592Y005398D01*
X007446Y005398D01*
X007446Y005108D01*
X007592Y005108D01*
X007640Y005156D01*
X007640Y005350D01*
D13*
X006306Y017143D03*
X006306Y019293D03*
X001181Y019768D03*
X001181Y018168D03*
X001181Y016018D03*
X001181Y021918D03*
D14*
X002481Y021247D02*
X002481Y020443D01*
X002831Y019643D02*
X004531Y019643D01*
X004531Y019043D02*
X002831Y019043D01*
X002481Y018247D02*
X002481Y017443D01*
X002831Y016643D02*
X004531Y016643D01*
X004881Y017443D02*
X004881Y018236D01*
X004881Y020443D02*
X004881Y021236D01*
X004531Y022043D02*
X002831Y022043D01*
X002981Y020843D02*
X002983Y020895D01*
X002989Y020947D01*
X002999Y020999D01*
X003012Y021049D01*
X003029Y021099D01*
X003050Y021147D01*
X003075Y021193D01*
X003103Y021237D01*
X003134Y021279D01*
X003168Y021319D01*
X003205Y021356D01*
X003245Y021390D01*
X003287Y021421D01*
X003331Y021449D01*
X003377Y021474D01*
X003425Y021495D01*
X003475Y021512D01*
X003525Y021525D01*
X003577Y021535D01*
X003629Y021541D01*
X003681Y021543D01*
X003733Y021541D01*
X003785Y021535D01*
X003837Y021525D01*
X003887Y021512D01*
X003937Y021495D01*
X003985Y021474D01*
X004031Y021449D01*
X004075Y021421D01*
X004117Y021390D01*
X004157Y021356D01*
X004194Y021319D01*
X004228Y021279D01*
X004259Y021237D01*
X004287Y021193D01*
X004312Y021147D01*
X004333Y021099D01*
X004350Y021049D01*
X004363Y020999D01*
X004373Y020947D01*
X004379Y020895D01*
X004381Y020843D01*
X004379Y020791D01*
X004373Y020739D01*
X004363Y020687D01*
X004350Y020637D01*
X004333Y020587D01*
X004312Y020539D01*
X004287Y020493D01*
X004259Y020449D01*
X004228Y020407D01*
X004194Y020367D01*
X004157Y020330D01*
X004117Y020296D01*
X004075Y020265D01*
X004031Y020237D01*
X003985Y020212D01*
X003937Y020191D01*
X003887Y020174D01*
X003837Y020161D01*
X003785Y020151D01*
X003733Y020145D01*
X003681Y020143D01*
X003629Y020145D01*
X003577Y020151D01*
X003525Y020161D01*
X003475Y020174D01*
X003425Y020191D01*
X003377Y020212D01*
X003331Y020237D01*
X003287Y020265D01*
X003245Y020296D01*
X003205Y020330D01*
X003168Y020367D01*
X003134Y020407D01*
X003103Y020449D01*
X003075Y020493D01*
X003050Y020539D01*
X003029Y020587D01*
X003012Y020637D01*
X002999Y020687D01*
X002989Y020739D01*
X002983Y020791D01*
X002981Y020843D01*
X002981Y017843D02*
X002983Y017895D01*
X002989Y017947D01*
X002999Y017999D01*
X003012Y018049D01*
X003029Y018099D01*
X003050Y018147D01*
X003075Y018193D01*
X003103Y018237D01*
X003134Y018279D01*
X003168Y018319D01*
X003205Y018356D01*
X003245Y018390D01*
X003287Y018421D01*
X003331Y018449D01*
X003377Y018474D01*
X003425Y018495D01*
X003475Y018512D01*
X003525Y018525D01*
X003577Y018535D01*
X003629Y018541D01*
X003681Y018543D01*
X003733Y018541D01*
X003785Y018535D01*
X003837Y018525D01*
X003887Y018512D01*
X003937Y018495D01*
X003985Y018474D01*
X004031Y018449D01*
X004075Y018421D01*
X004117Y018390D01*
X004157Y018356D01*
X004194Y018319D01*
X004228Y018279D01*
X004259Y018237D01*
X004287Y018193D01*
X004312Y018147D01*
X004333Y018099D01*
X004350Y018049D01*
X004363Y017999D01*
X004373Y017947D01*
X004379Y017895D01*
X004381Y017843D01*
X004379Y017791D01*
X004373Y017739D01*
X004363Y017687D01*
X004350Y017637D01*
X004333Y017587D01*
X004312Y017539D01*
X004287Y017493D01*
X004259Y017449D01*
X004228Y017407D01*
X004194Y017367D01*
X004157Y017330D01*
X004117Y017296D01*
X004075Y017265D01*
X004031Y017237D01*
X003985Y017212D01*
X003937Y017191D01*
X003887Y017174D01*
X003837Y017161D01*
X003785Y017151D01*
X003733Y017145D01*
X003681Y017143D01*
X003629Y017145D01*
X003577Y017151D01*
X003525Y017161D01*
X003475Y017174D01*
X003425Y017191D01*
X003377Y017212D01*
X003331Y017237D01*
X003287Y017265D01*
X003245Y017296D01*
X003205Y017330D01*
X003168Y017367D01*
X003134Y017407D01*
X003103Y017449D01*
X003075Y017493D01*
X003050Y017539D01*
X003029Y017587D01*
X003012Y017637D01*
X002999Y017687D01*
X002989Y017739D01*
X002983Y017791D01*
X002981Y017843D01*
X002324Y006093D02*
X002326Y006178D01*
X002332Y006263D01*
X002343Y006347D01*
X002357Y006431D01*
X002376Y006514D01*
X002399Y006596D01*
X002425Y006676D01*
X002456Y006756D01*
X002490Y006834D01*
X002529Y006909D01*
X002570Y006983D01*
X002616Y007055D01*
X002665Y007125D01*
X002717Y007192D01*
X002773Y007256D01*
X002831Y007318D01*
X002893Y007376D01*
X002957Y007432D01*
X003024Y007484D01*
X003094Y007533D01*
X003166Y007579D01*
X003240Y007620D01*
X003315Y007659D01*
X003393Y007693D01*
X003473Y007724D01*
X003553Y007750D01*
X003635Y007773D01*
X003718Y007792D01*
X003802Y007806D01*
X003886Y007817D01*
X003971Y007823D01*
X004056Y007825D01*
X004141Y007823D01*
X004226Y007817D01*
X004310Y007806D01*
X004394Y007792D01*
X004477Y007773D01*
X004559Y007750D01*
X004639Y007724D01*
X004719Y007693D01*
X004797Y007659D01*
X004872Y007620D01*
X004946Y007579D01*
X005018Y007533D01*
X005088Y007484D01*
X005155Y007432D01*
X005219Y007376D01*
X005281Y007318D01*
X005339Y007256D01*
X005395Y007192D01*
X005447Y007125D01*
X005496Y007055D01*
X005542Y006983D01*
X005583Y006909D01*
X005622Y006834D01*
X005656Y006756D01*
X005687Y006676D01*
X005713Y006596D01*
X005736Y006514D01*
X005755Y006431D01*
X005769Y006347D01*
X005780Y006263D01*
X005786Y006178D01*
X005788Y006093D01*
X005786Y006008D01*
X005780Y005923D01*
X005769Y005839D01*
X005755Y005755D01*
X005736Y005672D01*
X005713Y005590D01*
X005687Y005510D01*
X005656Y005430D01*
X005622Y005352D01*
X005583Y005277D01*
X005542Y005203D01*
X005496Y005131D01*
X005447Y005061D01*
X005395Y004994D01*
X005339Y004930D01*
X005281Y004868D01*
X005219Y004810D01*
X005155Y004754D01*
X005088Y004702D01*
X005018Y004653D01*
X004946Y004607D01*
X004872Y004566D01*
X004797Y004527D01*
X004719Y004493D01*
X004639Y004462D01*
X004559Y004436D01*
X004477Y004413D01*
X004394Y004394D01*
X004310Y004380D01*
X004226Y004369D01*
X004141Y004363D01*
X004056Y004361D01*
X003971Y004363D01*
X003886Y004369D01*
X003802Y004380D01*
X003718Y004394D01*
X003635Y004413D01*
X003553Y004436D01*
X003473Y004462D01*
X003393Y004493D01*
X003315Y004527D01*
X003240Y004566D01*
X003166Y004607D01*
X003094Y004653D01*
X003024Y004702D01*
X002957Y004754D01*
X002893Y004810D01*
X002831Y004868D01*
X002773Y004930D01*
X002717Y004994D01*
X002665Y005061D01*
X002616Y005131D01*
X002570Y005203D01*
X002529Y005277D01*
X002490Y005352D01*
X002456Y005430D01*
X002425Y005510D01*
X002399Y005590D01*
X002376Y005672D01*
X002357Y005755D01*
X002343Y005839D01*
X002332Y005923D01*
X002326Y006008D01*
X002324Y006093D01*
X011431Y026593D02*
X011181Y026843D01*
X011181Y027343D01*
X011431Y027593D01*
X011181Y027843D01*
X011181Y028343D01*
X011431Y028593D01*
X011931Y028593D01*
X012181Y028343D01*
X012181Y027843D01*
X011931Y027593D01*
X012181Y027343D01*
X012181Y026843D01*
X011931Y026593D01*
X011431Y026593D01*
D15*
X012081Y024993D02*
X012081Y021243D01*
X011031Y021243D01*
X012081Y024993D02*
X008281Y024993D01*
X008281Y021243D01*
X009331Y021243D01*
X005781Y023168D02*
X005781Y023468D01*
X005781Y023768D01*
X005781Y024168D02*
X005781Y024468D01*
X005781Y024768D01*
X005581Y024768D02*
X005581Y024468D01*
X005581Y024168D01*
X005581Y023768D02*
X005581Y023468D01*
X005581Y023168D01*
X008281Y007443D02*
X009331Y007443D01*
X008281Y007443D02*
X008281Y003693D01*
X012081Y003693D01*
X012081Y007443D01*
X011031Y007443D01*
D16*
X010181Y008482D02*
X010181Y009069D01*
X010181Y019282D02*
X010181Y019869D01*
X009887Y019576D02*
X010475Y019576D01*
X002056Y003973D02*
X001806Y003973D01*
X001556Y003973D01*
X001556Y003723D02*
X001806Y003723D01*
X002056Y003723D01*
D17*
X006244Y005218D02*
X006431Y005218D01*
X006431Y004905D01*
X006431Y005218D02*
X006619Y005218D01*
X006431Y005218D02*
X006619Y005468D01*
X006431Y005468D01*
X006431Y005780D01*
X006431Y005468D02*
X006244Y005468D01*
X006431Y005218D01*
D18*
X005756Y011093D03*
X003606Y011093D03*
D19*
X003041Y023768D03*
X003041Y024168D03*
M02*
