G75*
G70*
%OFA0B0*%
%FSLAX24Y24*%
%IPPOS*%
%LPD*%
%AMOC8*
5,1,8,0,0,1.08239X$1,22.5*
%
%ADD10C,0.0000*%
%ADD11C,0.0520*%
%ADD12R,0.0866X0.0236*%
%ADD13OC8,0.0520*%
%ADD14C,0.0520*%
%ADD15C,0.0740*%
%ADD16C,0.0436*%
%ADD17C,0.1095*%
%ADD18R,0.0669X0.0709*%
%ADD19C,0.0100*%
%ADD20C,0.0400*%
D10*
X000181Y000343D02*
X000181Y031339D01*
X013301Y031339D01*
X013301Y000343D01*
X000181Y000343D01*
D11*
X002181Y012583D02*
X002181Y013103D01*
X002181Y014583D02*
X002181Y015103D01*
X003181Y015103D02*
X003181Y014583D01*
X003181Y013103D02*
X003181Y012583D01*
X004181Y012583D02*
X004181Y013103D01*
X004181Y014583D02*
X004181Y015103D01*
X005181Y015103D02*
X005181Y014583D01*
X005181Y013103D02*
X005181Y012583D01*
X006181Y012583D02*
X006181Y013103D01*
X006181Y014583D02*
X006181Y015103D01*
X005681Y026083D02*
X005681Y026603D01*
X006681Y026603D02*
X006681Y026083D01*
X007681Y026083D02*
X007681Y026603D01*
X008681Y026603D02*
X008681Y026083D01*
X009681Y026083D02*
X009681Y026603D01*
X010681Y026603D02*
X010681Y026083D01*
X010681Y029083D02*
X010681Y029603D01*
X009681Y029603D02*
X009681Y029083D01*
X008681Y029083D02*
X008681Y029603D01*
X007681Y029603D02*
X007681Y029083D01*
X006681Y029083D02*
X006681Y029603D01*
X005681Y029603D02*
X005681Y029083D01*
X004681Y029083D02*
X004681Y029603D01*
X003681Y029603D02*
X003681Y029083D01*
X002681Y029083D02*
X002681Y029603D01*
X002681Y026603D02*
X002681Y026083D01*
X003681Y026083D02*
X003681Y026603D01*
X004681Y026603D02*
X004681Y026083D01*
D12*
X003908Y003093D03*
X003908Y002593D03*
X003908Y002093D03*
X003908Y001593D03*
X005955Y001593D03*
X005955Y002093D03*
X005955Y002593D03*
X005955Y003093D03*
D13*
X005281Y008843D03*
X006181Y011093D03*
X003181Y011093D03*
X001681Y008993D03*
X001681Y004843D03*
X001681Y002843D03*
X001181Y015593D03*
X001181Y018593D03*
X001181Y019843D03*
X001181Y022843D03*
X003431Y023843D03*
X006431Y023843D03*
D14*
X006081Y008843D03*
X001681Y008193D03*
D15*
X002401Y016953D03*
X002401Y018733D03*
X002401Y019953D03*
X002401Y021733D03*
X004961Y021733D03*
X004961Y019953D03*
X004961Y018733D03*
X004961Y016953D03*
X006431Y018843D03*
X006431Y019843D03*
D16*
X004150Y007077D02*
X003713Y007077D01*
X003713Y005108D02*
X004150Y005108D01*
D17*
X010181Y004443D03*
X010181Y007443D03*
X010181Y021243D03*
X010181Y024243D03*
D18*
X006431Y006150D03*
X006431Y004536D03*
D19*
X006501Y004503D01*
X006821Y004183D01*
X006821Y001303D01*
X005461Y001303D01*
X005381Y001383D01*
X005381Y002023D01*
X005941Y002023D01*
X005955Y002093D01*
X006021Y001623D02*
X005955Y001593D01*
X006021Y001623D02*
X006581Y001623D01*
X006581Y002263D01*
X006501Y002343D01*
X003301Y002343D01*
X003301Y002743D01*
X003621Y003063D01*
X003908Y003093D01*
X003861Y003063D01*
X003621Y003063D01*
X003301Y003383D01*
X003301Y006503D01*
X003861Y007063D01*
X003931Y007077D01*
X004981Y008823D02*
X004981Y002663D01*
X003941Y002663D01*
X003908Y002593D01*
X003861Y002103D02*
X003908Y002093D01*
X003861Y002103D02*
X002261Y002103D01*
X002261Y002343D01*
X001701Y002903D01*
X001681Y002843D01*
X001681Y004843D02*
X001701Y004903D01*
X002101Y005303D01*
X002101Y008583D01*
X001861Y008823D01*
X001681Y008993D01*
X001621Y009063D01*
X001221Y009463D01*
X001221Y015543D01*
X001181Y015593D01*
X001221Y015623D01*
X001621Y016023D01*
X001621Y019383D01*
X001221Y019783D01*
X001181Y019843D01*
X001861Y019223D02*
X002341Y018743D01*
X002401Y018733D01*
X001861Y019223D02*
X001861Y025543D01*
X002661Y026343D01*
X002681Y026343D01*
X003681Y026343D02*
X003701Y026343D01*
X003861Y026183D01*
X003861Y023703D01*
X003781Y023623D01*
X003781Y012183D01*
X005541Y012183D01*
X006181Y012823D01*
X006181Y012843D01*
X006581Y011543D02*
X006181Y011143D01*
X006181Y011093D01*
X006181Y011063D01*
X005061Y009943D01*
X005061Y009863D01*
X005941Y008983D01*
X006081Y008843D01*
X005941Y008983D02*
X005941Y005463D01*
X006181Y005223D01*
X006181Y004823D01*
X006421Y004583D01*
X006431Y004536D01*
X005941Y003863D02*
X005941Y003143D01*
X005955Y003093D01*
X005941Y002663D02*
X005955Y002593D01*
X005941Y002663D02*
X004981Y002663D01*
X006421Y005463D02*
X006421Y006103D01*
X006431Y006150D01*
X005281Y008843D02*
X005221Y008823D01*
X004981Y008823D01*
X001861Y008823D01*
X001701Y008983D01*
X001681Y008993D01*
X003141Y011143D02*
X002581Y011703D01*
X002581Y016743D01*
X002421Y016903D01*
X002401Y016953D01*
X002421Y016983D01*
X002901Y017463D01*
X002901Y019463D01*
X002421Y019943D01*
X002401Y019953D01*
X001181Y022843D02*
X001221Y022903D01*
X001301Y022983D01*
X001301Y027943D01*
X002661Y029303D01*
X002681Y029343D01*
X004181Y029703D02*
X004181Y014843D01*
X004581Y013303D02*
X004581Y016583D01*
X004421Y016743D01*
X004421Y025223D01*
X005221Y026023D01*
X005221Y029703D01*
X005781Y030263D01*
X008661Y030263D01*
X008661Y029383D01*
X008681Y029343D01*
X009221Y030503D02*
X009221Y026743D01*
X009621Y026343D01*
X009681Y026343D01*
X010261Y025463D02*
X010101Y025303D01*
X010261Y025463D02*
X010261Y028903D01*
X010661Y029303D01*
X010681Y029343D01*
X009221Y030503D02*
X004981Y030503D01*
X004181Y029703D01*
X006261Y026103D02*
X005861Y025703D01*
X005861Y015543D01*
X005221Y014903D01*
X005181Y014843D01*
X004581Y013303D02*
X004181Y012903D01*
X004181Y012843D01*
X003141Y011143D02*
X003181Y011093D01*
X006581Y014423D02*
X006181Y014823D01*
X006181Y014843D01*
X006181Y014903D01*
X007141Y015863D01*
X007141Y028903D01*
X006741Y029303D01*
X006681Y029343D01*
X006261Y029783D02*
X006501Y030023D01*
X007621Y030023D01*
X007621Y029383D01*
X007681Y029343D01*
X008661Y026343D02*
X008681Y026343D01*
X008661Y026343D02*
X008181Y025863D01*
X008181Y019463D01*
X006431Y019843D02*
X006421Y019863D01*
X006421Y023783D01*
X006431Y023843D01*
X006261Y026103D02*
X006261Y029783D01*
X010181Y024243D02*
X010181Y024183D01*
X011541Y022823D01*
X011541Y021543D01*
X006581Y014423D02*
X006581Y011543D01*
X008581Y006103D02*
X010181Y004503D01*
X010181Y004443D01*
D20*
X008581Y006103D03*
X006421Y005463D03*
X005941Y003863D03*
X008181Y019463D03*
X010101Y025303D03*
X011541Y021543D03*
M02*
