G75*
G70*
%OFA0B0*%
%FSLAX24Y24*%
%IPPOS*%
%LPD*%
%AMOC8*
5,1,8,0,0,1.08239X$1,22.5*
%
%ADD10R,0.1500X0.4250*%
%ADD11C,0.0520*%
%ADD12OC8,0.0520*%
%ADD13C,0.0520*%
%ADD14C,0.0740*%
%ADD15C,0.0436*%
%ADD16C,0.1095*%
%ADD17C,0.0100*%
%ADD18C,0.0400*%
D10*
X010181Y005968D03*
X010181Y022718D03*
D11*
X009681Y026083D02*
X009681Y026603D01*
X010681Y026603D02*
X010681Y026083D01*
X010681Y029083D02*
X010681Y029603D01*
X009681Y029603D02*
X009681Y029083D01*
X008681Y029083D02*
X008681Y029603D01*
X007681Y029603D02*
X007681Y029083D01*
X006681Y029083D02*
X006681Y029603D01*
X005681Y029603D02*
X005681Y029083D01*
X004681Y029083D02*
X004681Y029603D01*
X003681Y029603D02*
X003681Y029083D01*
X002681Y029083D02*
X002681Y029603D01*
X002681Y026603D02*
X002681Y026083D01*
X003681Y026083D02*
X003681Y026603D01*
X004681Y026603D02*
X004681Y026083D01*
X005681Y026083D02*
X005681Y026603D01*
X006681Y026603D02*
X006681Y026083D01*
X007681Y026083D02*
X007681Y026603D01*
X008681Y026603D02*
X008681Y026083D01*
X006181Y015103D02*
X006181Y014583D01*
X006181Y013103D02*
X006181Y012583D01*
X005181Y012583D02*
X005181Y013103D01*
X005181Y014583D02*
X005181Y015103D01*
X004181Y015103D02*
X004181Y014583D01*
X004181Y013103D02*
X004181Y012583D01*
X003181Y012583D02*
X003181Y013103D01*
X003181Y014583D02*
X003181Y015103D01*
X002181Y015103D02*
X002181Y014583D01*
X002181Y013103D02*
X002181Y012583D01*
D12*
X001681Y002843D03*
X001681Y004843D03*
X001681Y008993D03*
X003181Y011093D03*
X001181Y015593D03*
X001181Y018593D03*
X001181Y019843D03*
X001181Y022843D03*
X003431Y023843D03*
X006431Y023843D03*
X006181Y011093D03*
X005281Y008843D03*
D13*
X006081Y008843D03*
X001681Y008193D03*
D14*
X002401Y016953D03*
X002401Y018733D03*
X002401Y019953D03*
X002401Y021733D03*
X004961Y021733D03*
X004961Y019953D03*
X004961Y018733D03*
X004961Y016953D03*
X006431Y018843D03*
X006431Y019843D03*
D15*
X004150Y007077D02*
X003713Y007077D01*
X003713Y005108D02*
X004150Y005108D01*
D16*
X010181Y004443D03*
X010181Y007443D03*
X010181Y021243D03*
X010181Y024243D03*
D17*
X010101Y025303D02*
X009301Y025303D01*
X009301Y016983D01*
X005221Y012903D01*
X005181Y012843D01*
X006181Y011143D02*
X006181Y011093D01*
X006181Y011143D02*
X003861Y011143D01*
X002181Y012823D01*
X002181Y012843D01*
X003181Y012843D02*
X003221Y012823D01*
X003861Y012183D01*
X006341Y012183D01*
X011141Y016983D01*
X011141Y028663D01*
X010341Y028663D01*
X009701Y029303D01*
X009681Y029343D01*
X010661Y026343D02*
X010681Y026343D01*
X010661Y026343D02*
X009941Y025623D01*
X007621Y025623D01*
X006181Y024183D01*
X003781Y024183D01*
X003461Y023863D01*
X003431Y023843D01*
X002901Y023943D02*
X003381Y024423D01*
X004741Y024423D01*
X006661Y026343D01*
X006681Y026343D01*
X006901Y027063D02*
X007621Y026343D01*
X007681Y026343D01*
X006901Y027063D02*
X002261Y027063D01*
X002261Y026343D01*
X001141Y025223D01*
X000741Y025223D01*
X000741Y017863D01*
X002181Y016423D01*
X002181Y014843D01*
X003181Y014843D02*
X003221Y014903D01*
X004741Y016423D01*
X005141Y016423D01*
X008181Y019463D01*
X006421Y018903D02*
X006431Y018843D01*
X006421Y018903D02*
X005941Y019383D01*
X004021Y019383D01*
X002901Y020503D01*
X001861Y020503D01*
X001221Y019863D01*
X001181Y019843D01*
X001221Y018663D02*
X001181Y018593D01*
X001221Y018663D02*
X002341Y018663D01*
X002401Y018733D01*
X002901Y020503D02*
X002901Y023943D01*
X001221Y022823D02*
X002261Y021783D01*
X002341Y021783D01*
X002401Y021733D01*
X001221Y022823D02*
X001181Y022843D01*
X005061Y009303D02*
X003381Y007623D01*
X003861Y007143D01*
X003931Y007077D01*
X003381Y007623D02*
X002821Y008183D01*
X001701Y008183D01*
X001681Y008193D01*
X003941Y005143D02*
X003931Y005108D01*
X003941Y005143D02*
X005941Y005143D01*
X005941Y003863D01*
X005941Y005143D02*
X006101Y005143D01*
X006421Y005463D01*
X008581Y006103D02*
X006261Y008423D01*
X005701Y008423D01*
X005281Y008843D01*
X005061Y009303D02*
X011541Y009303D01*
X011541Y021543D01*
D18*
X011541Y021543D03*
X010101Y025303D03*
X008181Y019463D03*
X008581Y006103D03*
X006421Y005463D03*
X005941Y003863D03*
M02*
